<?xml version="1.0" encoding="UTF-8" standalone="no"?>
<svg
   viewBox="0 0 400 80"
   version="1.1"
   id="svg5"
   sodipodi:docname="logo.svg"
   inkscape:version="1.4 (86a8ad7, 2024-10-11)"
   xmlns:inkscape="http://www.inkscape.org/namespaces/inkscape"
   xmlns:sodipodi="http://sodipodi.sourceforge.net/DTD/sodipodi-0.dtd"
   xmlns="http://www.w3.org/2000/svg"
   xmlns:svg="http://www.w3.org/2000/svg">
  <defs
     id="defs5" />
  <sodipodi:namedview
     id="namedview5"
     pagecolor="#ffffff"
     bordercolor="#666666"
     borderopacity="1.0"
     inkscape:showpageshadow="2"
     inkscape:pageopacity="0.0"
     inkscape:pagecheckerboard="0"
     inkscape:deskcolor="#d1d1d1"
     inkscape:zoom="2.8284271"
     inkscape:cx="272.58966"
     inkscape:cy="7.9549513"
     inkscape:window-width="2560"
     inkscape:window-height="1494"
     inkscape:window-x="-11"
     inkscape:window-y="-11"
     inkscape:window-maximized="1"
     inkscape:current-layer="svg5" />
  <!-- Background -->
  <rect
     width="400"
     height="80"
     fill="#1a1a2e"
     rx="8"
     id="rect1" />
  <!-- Waveform -->
  <g
     stroke="#00d4ff"
     stroke-width="3"
     fill="none"
     stroke-linecap="square"
     id="g1">
    <!-- Digital waveform pattern -->
    <path
       d="M 30 55               L 30 25 L 50 25               L 50 55 L 80 55               L 80 25 L 100 25               L 100 55 L 110 55              L 110 25 L 140 25              L 140 55 L 160 55              L 160 25 L 170 25              L 170 55 L 190 55"
       id="path1" />
  </g>
  <!-- Arrow indicating extraction -->
  <g
     fill="#ff6b6b"
     stroke="#ff6b6b"
     stroke-width="2"
     id="g2">
    <path
       d="M 200 40 L 230 40 M 222 32 L 232 40 L 222 48"
       stroke-linecap="round"
       stroke-linejoin="round"
       id="path2" />
  </g>
  <!-- Output representation (table/data) -->
  <g
     stroke="#4ade80"
     stroke-width="2"
     fill="none"
     id="g4">
    <rect
       x="245"
       y="15"
       width="50"
       height="50"
       rx="3"
       id="rect2" />
    <line
       x1="245.57323"
       y1="28.31196"
       x2="295.57321"
       y2="28.31196"
       id="line2" />
    <line
       x1="244.77771"
       y1="40.823223"
       x2="294.77771"
       y2="40.823223"
       id="line2-8" />
    <line
       x1="244.96338"
       y1="53.256504"
       x2="294.96341"
       y2="53.256504"
       id="line3" />
    <line
       x1="270"
       y1="15"
       x2="270"
       y2="65"
       id="line4" />
  </g>
  <!-- Text -->
  <text
     x="310"
     y="35"
     font-family="Segoe UI, Arial, sans-serif"
     font-size="14"
     font-weight="bold"
     fill="#ffffff"
     id="text4">VCD</text>
  <text
     x="310"
     y="52"
     font-family="Segoe UI, Arial, sans-serif"
     font-size="11"
     fill="#888888"
     id="text5">Extractor</text>
  <!-- Vivado accent bar -->
  <rect
     x="0"
     y="0"
     width="6"
     height="80"
     fill="#ff6b6b"
     rx="3"
     ry="0"
     id="rect5" />
  <rect
     style="fill:#ff6b6b;stroke-width:0.99413"
     id="rect3"
     width="1.1048543"
     height="16.160439"
     x="221.00212"
     y="31.908194" />
</svg>
